<?xml version="1.0" standalone="no"?>
<!DOCTYPE svg PUBLIC "-//W3C//DTD SVG 20010904//EN"
 "http://www.w3.org/TR/2001/REC-SVG-20010904/DTD/svg10.dtd">
<svg version="1.0" xmlns="http://www.w3.org/2000/svg"
 width="160.000000pt" height="160.000000pt" viewBox="0 0 160.000000 160.000000"
 preserveAspectRatio="xMidYMid meet">
<metadata>
Created by potrace 1.14, written by Peter Selinger 2001-2017
</metadata>
<g transform="translate(0.000000,160.000000) scale(0.100000,-0.100000)"
fill="#000000" stroke="none">
<path d="M990 1273 l0 -163 115 0 c103 0 115 -2 116 -17 0 -10 0 -49 -1 -88
-1 -38 -3 -162 -6 -274 -2 -112 -5 -206 -7 -208 -3 -2 -38 8 -80 22 -42 14
-89 25 -106 25 -31 0 -31 1 -32 53 -1 91 -10 237 -24 415 -3 30 0 41 8 36 7
-3 4 1 -6 9 -10 8 -19 28 -20 45 -1 17 -4 28 -6 26 -6 -5 -36 39 -33 48 1 5
-1 7 -6 6 -4 -1 -20 4 -35 10 -16 7 -33 12 -38 12 -6 0 -8 4 -5 8 3 5 -9 6
-26 4 -23 -3 -29 -1 -23 8 6 9 3 9 -13 1 -25 -13 -29 -8 -29 46 l-1 42 64 -6
c55 -5 64 -4 64 11 0 9 -6 17 -12 17 -7 1 -26 3 -43 6 -36 5 -420 8 -485 3
-46 -4 -70 -15 -70 -33 0 -6 18 -7 48 -3 l48 6 -2 -42 c-2 -58 -2 -57 -21 -54
-10 2 -35 -3 -57 -10 -21 -8 -42 -11 -47 -8 -5 3 -9 -2 -9 -10 0 -9 -4 -16
-10 -16 -22 0 -59 -76 -65 -135 -4 -33 -8 -71 -11 -85 -2 -13 -6 -74 -10 -135
-3 -60 -8 -132 -9 -160 -11 -185 -8 -281 13 -327 11 -25 25 -49 31 -52 15 -10
14 -19 -7 -42 -9 -10 -45 -53 -80 -95 -56 -69 -62 -80 -62 -122 l0 -46 586 0
c555 -1 586 0 572 17 -15 17 -141 172 -168 206 -8 10 -25 28 -36 41 -16 16
-19 26 -12 38 13 24 21 22 74 -27 27 -24 72 -63 99 -87 28 -24 81 -71 119
-104 104 -91 90 -86 233 -83 l128 3 1 188 1 188 -26 13 c-14 7 -87 32 -161 56
-74 24 -137 48 -140 52 -3 4 -5 94 -5 200 1 106 -1 198 -4 203 -3 6 -6 54 -6
107 l-1 97 110 0 c60 0 111 3 114 5 3 4 6 245 3 306 -1 14 -32 16 -246 16
l-245 1 0 -164z m-290 22 l0 -44 -160 0 -160 0 0 45 0 44 160 0 160 0 0 -45z"/>
</g>
</svg>
